<svg width="289" height="569" viewBox="0 0 289 569" fill="none" xmlns="http://www.w3.org/2000/svg">
<path d="M170.798 12.9894C172.86 13.2272 173.77 14.1064 175.157 15.5904C176.584 17.0748 178.01 18.4829 179.585 19.8082C186.336 25.6732 192.056 32.1356 197.23 39.4211C197.461 39.7453 197.692 40.0695 197.93 40.4036C206.926 53.2385 212.452 67.4874 216.354 82.5516C219.796 95.7824 224.046 109.171 232.097 120.403C232.489 120.954 232.882 121.505 233.286 122.073C236.049 125.852 239.008 129.372 242.22 132.775C242.598 133.19 242.977 133.605 243.367 134.032C248.489 139.442 254.513 143.464 261.06 146.94C265.642 149.395 268.947 151.664 270.866 156.676C271.987 160.734 271.783 164.455 269.776 168.205C268.262 170.311 266.632 171.806 264.575 173.372C260.487 176.661 256.09 180.791 255.155 186.201C254.849 190.393 256.566 193.64 259.091 196.886C262.332 200.243 266.052 203.087 269.776 205.884C269.323 208.896 268.738 211.836 267.892 214.762C267.757 215.233 267.623 215.704 267.485 216.19C267.211 217.137 266.928 218.081 266.635 219.022C265.827 221.708 265.827 221.708 266.514 224.355C266.848 224.755 267.183 225.155 267.527 225.568C267.778 225.923 268.029 226.278 268.287 226.644C268.767 227.289 269.247 227.933 269.728 228.577C271.274 230.924 271.214 233.553 270.901 236.253C269.959 238.266 268.93 239.366 267.309 240.886C264.064 243.932 261.726 246.303 261.341 250.874C261.348 255.264 263.172 258.76 265.322 262.465C267.972 267.056 268.604 271.484 268.089 276.744C267.609 278.488 266.908 279.79 265.84 281.243C265.606 281.569 265.372 281.895 265.13 282.231C255.116 293.955 233.902 294.125 219.973 295.405C219.344 295.464 218.715 295.522 218.066 295.582C214.912 295.873 211.757 296.155 208.6 296.419C197.812 297.359 186.922 298.882 176.668 302.508C176.121 302.695 175.573 302.882 175.01 303.074C170.206 304.766 165.69 306.9 161.238 309.362C162.531 348.536 178.565 389.934 204.196 419.636C204.859 420.422 205.504 421.222 206.139 422.03C209.632 426.448 213.51 430.397 217.507 434.357C218.638 435.477 219.765 436.602 220.89 437.728C225.641 442.477 225.641 442.477 230.654 446.944C232 448.108 233.223 449.388 234.468 450.659C235.525 451.695 236.628 452.652 237.756 453.611C239.857 455.417 241.594 457.371 243.345 459.516C223.981 453.988 205.159 444.023 189.919 430.835C189.25 430.26 189.25 430.26 188.568 429.673C160.829 405.26 149.591 372.676 143.143 337.133C142.681 334.609 142.129 332.108 141.555 329.607C141.184 329.607 140.812 329.607 140.43 329.607C139.044 335.708 139.975 342.315 140.3 348.524C140.347 349.428 140.393 350.332 140.44 351.236C140.537 353.13 140.636 355.024 140.736 356.918C140.836 358.818 140.934 360.718 141.029 362.618C141.52 372.424 142.072 382.216 142.958 391.996C143.056 393.08 143.056 393.08 143.156 394.186C146.264 426.97 155.976 457.904 176.984 483.698C177.265 484.044 177.545 484.389 177.834 484.745C183.814 492.053 190.364 498.669 197.792 504.506C198.395 505.008 198.996 505.512 199.596 506.017C208.677 513.596 218.816 519.845 229.285 525.314C229.656 525.508 230.028 525.703 230.41 525.903C233.011 527.256 235.637 528.55 238.283 529.813C238.693 530.009 239.102 530.205 239.524 530.407C254.626 537.58 270.759 543.19 287.082 546.848C287.495 546.98 287.909 547.111 288.335 547.247C288.52 547.618 288.706 547.989 288.897 548.371C283.087 550.308 276.091 548.489 270.198 547.458C269.533 547.344 269.533 547.344 268.855 547.227C236.492 541.67 205.637 530.14 179.796 509.567C179.277 509.158 178.758 508.748 178.223 508.326C170.097 501.808 162.211 494.549 155.728 486.376C154.438 484.758 153.095 483.195 151.748 481.624C124.935 449.424 114.132 407.801 107.812 367.286C105.239 374.112 103.13 380.952 101.626 388.094C101.532 388.531 101.439 388.968 101.342 389.419C98.2654 404.608 98.4799 422.562 102.188 437.583C102.306 438.08 102.423 438.576 102.545 439.088C106.071 453.651 112.695 467.299 121.653 479.274C122.341 480.199 123.009 481.139 123.673 482.081C126.576 485.982 129.983 488.418 133.998 491.044C136.655 492.782 139.214 494.639 141.766 496.527C142.214 496.859 142.662 497.19 143.124 497.531C146.197 499.813 149.225 502.148 152.24 504.506C153.083 505.159 153.926 505.811 154.768 506.463C156.474 507.786 158.15 509.138 159.817 510.51C166.664 516.01 173.711 518.785 182.046 521.377C183.302 521.769 184.556 522.166 185.809 522.568C186.368 522.744 186.926 522.92 187.502 523.102C188.794 523.627 188.794 523.627 189.357 524.752C188.267 524.589 187.177 524.424 186.088 524.26C185.481 524.168 184.874 524.077 184.249 523.983C181.445 523.53 178.653 523.018 175.86 522.502C186.355 529.573 196.756 536.388 208.047 542.145C208.58 542.418 209.113 542.691 209.662 542.972C210.138 543.213 210.614 543.455 211.105 543.704C212.386 544.419 213.514 545.214 214.664 546.122C212.621 545.775 210.867 545.211 208.967 544.389C201.65 541.283 194.306 538.484 186.756 535.999C186.116 535.788 186.116 535.788 185.463 535.573C181.641 534.314 177.814 533.069 173.98 531.843C153.617 525.331 134.673 516.336 115.618 506.696C92.6317 495.001 92.6317 495.001 67.8835 488.197C67.2752 488.096 66.667 487.994 66.0404 487.89C56.6645 486.748 47.6524 487.657 39.2023 492.134C38.7543 492.369 38.3063 492.605 37.8447 492.848C28.6512 498.014 22.5657 506.06 19.6597 516.14C17.445 524.961 18.0641 533.649 22.4496 541.761C25.705 546.772 30.6396 550.945 36.5112 552.385C48.0111 554.729 60.1813 551.895 69.8869 545.489C76.7485 540.626 83.3011 533.919 85.6532 525.602C86.5019 520.304 86.4145 515.866 83.63 511.255C83.63 510.512 83.63 509.77 83.63 509.005C87.0737 509.763 89.6624 510.967 91.6307 514.007C94.5471 519.494 94.1949 525.282 92.7181 531.168C88.4721 544.307 78.4967 555.233 66.3633 561.622C54.7401 567.436 42.3692 570.196 29.6419 566.367C24.34 564.52 19.9356 562.024 15.5825 558.494C15.025 558.058 14.4675 557.623 13.8932 557.174C12.1278 555.69 10.7533 553.978 9.43149 552.097C9.19108 551.755 8.95067 551.413 8.70298 551.061C0.955562 539.712 -1.42849 526.542 0.78935 512.986C1.25304 510.668 1.89317 508.431 2.64783 506.193C2.76536 505.84 2.88289 505.486 3.00398 505.122C8.39729 489.406 18.951 477.139 33.8673 469.715C50.1762 461.951 68.6857 460.714 85.8795 466.264C85.6934 466.017 85.5072 465.769 85.3155 465.514C75.1595 451.919 66.6958 437.121 60.5726 421.274C60.369 420.755 60.1655 420.235 59.9558 419.699C55.0883 407.153 51.4968 394.165 49.8874 380.783C49.8352 380.403 49.783 380.022 49.7293 379.63C48.1163 366.383 48.5017 351.68 51.0122 338.605C51.1209 338.035 51.2297 337.464 51.3417 336.877C54.0386 323.238 58.3481 310.018 64.5092 297.552C64.7759 297.008 65.0426 296.465 65.3173 295.905C70.6667 285.094 76.8166 274.884 83.9419 265.151C84.9701 263.742 85.9606 262.312 86.9383 260.868C87.213 260.462 87.4876 260.057 87.7705 259.639C88.2972 258.859 88.8216 258.077 89.3431 257.294C89.584 256.938 89.8249 256.582 90.0731 256.215C90.2818 255.903 90.4904 255.591 90.7054 255.269C91.5033 254.249 91.5033 254.249 92.8569 252.914C94.2878 251.465 95.4096 249.992 96.5822 248.331C99.5065 244.375 102.885 241.009 106.406 237.588C107.33 236.684 108.253 235.778 109.175 234.871C109.998 234.062 110.824 233.256 111.651 232.451C112.889 231.303 112.889 231.303 113.436 230.067C113.807 230.067 114.178 230.067 114.561 230.067C114.789 229.563 114.789 229.563 115.022 229.05C115.678 227.831 116.319 227.051 117.299 226.084C117.624 225.761 117.949 225.438 118.284 225.105C118.635 224.762 118.986 224.419 119.347 224.065C119.893 223.524 119.893 223.524 120.449 222.972C121.612 221.819 122.778 220.67 123.945 219.522C125.102 218.381 126.257 217.239 127.411 216.096C128.128 215.386 128.847 214.677 129.567 213.97C131.676 211.885 133.665 209.728 135.598 207.478C137.044 205.813 138.565 204.22 140.078 202.616C143.16 199.319 146.056 195.92 148.866 192.387C149.409 191.72 149.953 191.053 150.498 190.386C153.865 186.25 157.072 182.067 160.024 177.621C160.475 176.943 160.928 176.267 161.384 175.593C173.63 157.455 182.534 137.484 186.545 115.904C186.636 115.443 186.727 114.981 186.821 114.505C191.049 92.3699 188.375 68.2935 182.608 46.7319C182.461 46.1815 182.314 45.6311 182.163 45.064C179.979 37.0757 177.042 29.5031 173.744 21.9141C172.547 19.1382 171.392 16.3446 170.236 13.5518C170.421 13.3662 170.607 13.1806 170.798 12.9894ZM83.0676 311.611C79.398 316.217 76.4202 320.898 73.7533 326.163C73.5725 326.516 73.3917 326.869 73.2055 327.233C60.8234 351.515 57.3872 378.016 65.7572 404.182C65.9021 404.626 66.047 405.07 66.1963 405.528C66.3908 406.126 66.3908 406.126 66.5893 406.737C72.9486 425.857 85.1212 441.803 98.6735 456.388C99.012 456.754 99.3504 457.119 99.699 457.496C102.532 460.511 105.486 463.401 108.937 465.702C108.193 463.685 107.298 461.974 106.114 460.182C105.775 459.665 105.435 459.148 105.085 458.616C104.721 458.066 104.356 457.516 103.981 456.95C103.605 456.377 103.228 455.804 102.84 455.213C101.35 452.944 99.8551 450.678 98.355 448.415C94.0773 441.959 90.0134 435.462 86.4419 428.585C86.2458 428.209 86.0497 427.832 85.8476 427.444C76.9934 410.167 71.9551 390.62 71.2577 371.223C71.2345 370.624 71.2113 370.025 71.1874 369.408C70.9031 354.518 73.5928 339.675 78.5686 325.67C78.7176 325.25 78.8666 324.83 79.02 324.397C81.4678 317.564 81.4678 317.564 82.9204 314.838C83.8434 313.297 83.8434 313.297 83.0676 311.611Z" fill="#F97316"/>
<path d="M118.493 57.4174C119.053 57.885 119.613 58.3525 120.189 58.8343C128.073 65.6378 135.165 74.8899 138.177 84.9738C138.177 85.5305 138.177 86.0873 138.177 86.6609C116.036 87.2537 94.9641 82.16 77.44 68.1025C77.0558 67.8046 76.6716 67.5066 76.2757 67.1996C75.513 66.5948 74.7833 65.9484 74.0658 65.2906C74.0658 64.9195 74.0658 64.5483 74.0658 64.1659C73.6946 64.1659 73.3234 64.1659 72.941 64.1659C68.4994 59.6409 62.2559 51.0729 62.2559 44.4827C63.0979 44.2084 63.9418 43.9402 64.7866 43.6743C65.2563 43.5242 65.7261 43.3742 66.2101 43.2196C84.2116 38.6481 104.676 45.8711 118.493 57.4174Z" fill="#F97316"/>
<path d="M133.121 102.407C130.958 107.686 123.457 110.385 118.499 112.53C105.283 117.839 90.139 118.852 76.3206 115.342C75.948 115.248 75.5753 115.155 75.1914 115.058C64.3743 112.239 54.5828 106.751 46.5146 99.0328C52.7879 91.0011 62.0181 87.3604 71.9221 85.9199C92.8917 83.386 116.195 89.7802 133.121 102.407Z" fill="#F97316"/>
<path d="M96.5605 0.617188C99.7295 0.844125 102.222 1.77504 105.066 3.14788C105.485 3.34851 105.903 3.54913 106.334 3.75584C124.753 12.8438 138.624 30.43 145.349 49.6312C147.796 57.0254 149.115 64.2185 148.861 72.0389C146.152 71.7301 143.995 70.9013 141.621 69.6137C141.258 69.4178 140.895 69.222 140.522 69.0202C133.382 65.0307 127.169 59.697 121.305 54.0429C120.84 53.6138 120.376 53.1846 119.897 52.7424C108.256 41.6807 96.5968 24.5117 95.807 7.95444C95.7639 5.68362 95.8016 3.44267 95.9981 1.17956C96.1837 0.993979 96.3693 0.808395 96.5605 0.617188Z" fill="#F97316"/>
<path d="M134.798 119.278C134.012 126.407 124.653 134.044 119.315 138.348C103.016 150.974 82.5051 157.742 61.8497 155.68C53.759 154.65 53.759 154.65 52.1289 153.02C54.0345 148.519 56.5609 145.219 60.0022 141.773C60.4183 141.35 60.8344 140.927 61.2631 140.492C79.8416 122.695 110.092 117.075 134.798 119.278Z" fill="#F97316"/>
<path d="M171.555 82.9899C177.655 87.4232 182.914 93.6675 184.292 101.283C184.65 105.718 184.666 109.387 182.042 113.092C181.81 113.432 181.579 113.771 181.34 114.121C177.343 119.343 170.405 122.195 164.046 123.215C157.353 123.731 150.662 123.006 145.361 118.543C141.103 114.482 137.954 110.1 137.481 104.077C137.337 97.3712 138.558 91.6542 143.239 86.6608C150.809 79.0115 162.205 77.1346 171.555 82.9899Z" fill="#F97316"/>
<path d="M157.867 11.8647C159.818 13.4182 160.574 15.5964 161.488 17.84C161.66 18.2596 161.832 18.6793 162.009 19.1117C168.464 35.4533 167.541 52.6665 160.679 68.6647C160.314 69.4193 159.944 70.172 159.555 70.9142C158.066 70.3498 157.406 69.9502 156.549 68.5834C149.671 52.7121 147.991 34.4034 154.302 18.0399C155.303 15.8127 156.468 13.864 157.867 11.8647Z" fill="#F97316"/>
<path d="M142.677 126.589C142.144 142.382 135.035 156.912 123.556 167.643C119.589 171.147 115.414 174.346 110.621 176.641C108.75 166.625 114.211 155.546 119.619 147.397C123.933 141.206 134.357 126.589 142.677 126.589Z" fill="#F97316"/>
<path d="M215.781 546.684C216.906 547.246 216.906 547.246 216.906 547.246L215.781 546.684Z" fill="#F97316"/>
<path d="M214.667 546.122C215.792 546.684 215.792 546.684 215.792 546.684L214.667 546.122Z" fill="#F97316"/>
<path d="M44.2578 502.257C45.3826 502.819 45.3826 502.819 45.3826 502.819L44.2578 502.257Z" fill="#F97316"/>
</svg>
