<svg width="246" height="78" viewBox="0 0 246 78" fill="none" xmlns="http://www.w3.org/2000/svg">
<path d="M223.206 24H38.7941C31.7281 24 26 30.4919 26 38.5C26 46.5081 31.7281 53 38.7941 53H223.206C230.272 53 236 46.5081 236 38.5C236 30.4919 230.272 24 223.206 24Z" fill="#080808"/>
<path opacity="0.1" d="M205.533 1H32.4667C15.0881 1 1 18.0132 1 39C1 59.9868 15.0881 77 32.4667 77H205.533C222.912 77 237 59.9868 237 39C237 18.0132 222.912 1 205.533 1Z" fill="url(#paint0_linear_767_1004)" fill-opacity="0.05" stroke="url(#paint1_linear_767_1004)"/>
<path opacity="0.2" d="M221.889 13H36.1111C23.3472 13 13 24.6406 13 39C13 53.3594 23.3472 65 36.1111 65H221.889C234.653 65 245 53.3594 245 39C245 24.6406 234.653 13 221.889 13Z" fill="url(#paint2_linear_767_1004)" fill-opacity="0.05" stroke="url(#paint3_linear_767_1004)"/>
<path opacity="0.5" d="M223.145 24H37.855C30.7554 24 25 30.4919 25 38.5C25 46.5081 30.7554 53 37.855 53H223.145C230.245 53 236 46.5081 236 38.5C236 30.4919 230.245 24 223.145 24Z" fill="#00D17A" fill-opacity="0.05"/>
<path d="M223.084 25H36.916C29.7827 25 24 31.4919 24 39.5C24 47.5081 29.7827 54 36.916 54H223.084C230.217 54 236 47.5081 236 39.5C236 31.4919 230.217 25 223.084 25Z" fill="white" fill-opacity="0.01"/>
<path d="M223.084 25H36.916C29.7827 25 24 31.4919 24 39.5C24 47.5081 29.7827 54 36.916 54H223.084C230.217 54 236 47.5081 236 39.5C236 31.4919 230.217 25 223.084 25Z" fill="url(#paint4_radial_767_1004)" fill-opacity="0.2"/>
<path d="M223.595 25H38.4051C31.5539 25 26 31.268 26 39C26 46.732 31.5539 53 38.4051 53H223.595C230.446 53 236 46.732 236 39C236 31.268 230.446 25 223.595 25Z" stroke="url(#paint5_radial_767_1004)" stroke-opacity="0.6"/>
<path d="M223.595 25H38.4051C31.5539 25 26 31.268 26 39C26 46.732 31.5539 53 38.4051 53H223.595C230.446 53 236 46.732 236 39C236 31.268 230.446 25 223.595 25Z" stroke="url(#paint6_linear_767_1004)" stroke-opacity="0.5"/>
<path d="M45 39C45 37.067 43.433 35.5 41.5 35.5C39.567 35.5 38 37.067 38 39C38 40.933 39.567 42.5 41.5 42.5C43.433 42.5 45 40.933 45 39Z" fill="url(#paint7_linear_767_1004)" stroke="url(#paint8_radial_767_1004)"/>
<path d="M67.9641 36.3651H65.2049V44H63.5274V36.3651H60.7839V34.9071H67.9641V36.3651ZM75.2392 40.2688H73.6401V39.5319C73.6401 39.3961 73.5826 39.2759 73.4676 39.1714C73.3631 39.0668 73.2377 39.0146 73.0914 39.0146H72.3859C72.1873 39.0146 72.0567 39.0303 71.994 39.0616C71.9313 39.0825 71.8267 39.1557 71.6804 39.2811L70.63 40.2374V44H69.0623V37.5723H70.63V38.4345C70.6718 38.4032 70.7398 38.3405 70.8338 38.2464C70.9279 38.1419 70.9906 38.0739 71.022 38.0426C71.0638 38.0112 71.1213 37.9642 71.1944 37.9015C71.278 37.8283 71.346 37.7813 71.3982 37.7604C71.4609 37.729 71.5341 37.6977 71.6177 37.6663C71.7013 37.6245 71.7902 37.5984 71.8842 37.5879C71.9783 37.5775 72.0828 37.5723 72.1978 37.5723H73.013C73.6505 37.5618 74.1783 37.7552 74.5964 38.1523C75.0249 38.5495 75.2392 39.0459 75.2392 39.6417V40.2688ZM83.698 44H82.1303V43.0907C81.9003 43.3206 81.7331 43.4774 81.6286 43.561C81.5345 43.6446 81.3778 43.7387 81.1583 43.8432C80.9492 43.9477 80.7245 44 80.4841 44H79.4181C78.7701 44 78.237 43.8066 77.819 43.4199C77.4009 43.0228 77.1919 42.5211 77.1919 41.9149V37.5723H78.7596V42.0874C78.7596 42.2232 78.8119 42.3434 78.9164 42.4479C79.0314 42.5525 79.162 42.6047 79.3083 42.6047H80.3117C80.5103 42.6047 80.6409 42.5943 80.7036 42.5734C80.7768 42.542 80.8761 42.4636 81.0015 42.3382L82.1303 41.1937V37.5723H83.698V44ZM92.7626 41.5543H87.7772V42.0874C87.7772 42.2232 87.8295 42.3434 87.934 42.4479C88.0489 42.5525 88.1796 42.6047 88.3259 42.6047H91.9317V44H88.4357C87.7877 44 87.2546 43.8066 86.8366 43.4199C86.4185 43.0228 86.2095 42.5211 86.2095 41.9149V39.6574C86.2095 39.0512 86.4185 38.5547 86.8366 38.168C87.2546 37.7708 87.7877 37.5723 88.4357 37.5723H90.5364C91.1844 37.5723 91.7175 37.7708 92.1355 38.168C92.5536 38.5547 92.7626 39.0512 92.7626 39.6574V41.5543ZM91.1949 40.1904V39.5319C91.1949 39.3856 91.1426 39.2654 91.0381 39.1714C90.9336 39.0668 90.8029 39.0146 90.6462 39.0146H88.3259C88.1796 39.0146 88.0489 39.0668 87.934 39.1714C87.8295 39.2759 87.7772 39.3961 87.7772 39.5319V40.1904H91.1949ZM104.987 44H100.754V42.5734H102.071V36.3337H100.754V34.9071H104.987V36.3337H103.654V42.5734H104.987V44ZM114.138 44H109.717C109.069 44 108.535 43.8014 108.117 43.4043C107.699 42.9966 107.49 42.4897 107.49 41.8835V39.5633C107.49 38.9571 107.699 38.4502 108.117 38.0426C108.546 37.635 109.079 37.4364 109.717 37.4468H110.924C111.154 37.4468 111.373 37.4939 111.582 37.5879C111.802 37.682 111.969 37.7761 112.084 37.8701C112.199 37.9642 112.361 38.1105 112.57 38.3091V34.9071H114.138V44ZM112.57 42.6047V40.1277L111.457 39.1557C111.31 39.0198 111.201 38.9414 111.127 38.9205C111.065 38.8892 110.939 38.8735 110.751 38.8735H109.607C109.46 38.8735 109.33 38.9257 109.215 39.0303C109.11 39.1348 109.058 39.255 109.058 39.3908V42.0717C109.058 42.218 109.11 42.3434 109.215 42.4479C109.33 42.5525 109.46 42.6047 109.607 42.6047H112.57ZM123.199 41.5543H118.213V42.0874C118.213 42.2232 118.266 42.3434 118.37 42.4479C118.485 42.5525 118.616 42.6047 118.762 42.6047H122.368V44H118.872C118.224 44 117.691 43.8066 117.273 43.4199C116.855 43.0228 116.646 42.5211 116.646 41.9149V39.6574C116.646 39.0512 116.855 38.5547 117.273 38.168C117.691 37.7708 118.224 37.5723 118.872 37.5723H120.973C121.621 37.5723 122.154 37.7708 122.572 38.168C122.99 38.5547 123.199 39.0512 123.199 39.6574V41.5543ZM121.631 40.1904V39.5319C121.631 39.3856 121.579 39.2654 121.474 39.1714C121.37 39.0668 121.239 39.0146 121.082 39.0146H118.762C118.616 39.0146 118.485 39.0668 118.37 39.1714C118.266 39.2759 118.213 39.3961 118.213 39.5319V40.1904H121.631ZM132.278 44H130.71V39.5006C130.71 39.3647 130.653 39.2445 130.538 39.14C130.433 39.0355 130.308 38.9832 130.162 38.9832H129.127C128.949 38.9832 128.824 38.9989 128.751 39.0303C128.677 39.0616 128.573 39.14 128.437 39.2654L127.277 40.2217V44H125.709V37.5723H127.277V38.4972C127.298 38.4763 127.371 38.4084 127.496 38.2934C127.632 38.1785 127.721 38.1053 127.763 38.0739C127.815 38.0321 127.899 37.9694 128.014 37.8858C128.129 37.8022 128.223 37.7447 128.296 37.7134C128.38 37.682 128.479 37.6506 128.594 37.6193C128.719 37.5879 128.839 37.5723 128.954 37.5723H130.115C130.752 37.5723 131.269 37.7604 131.667 38.1366C132.074 38.5025 132.278 38.9832 132.278 39.579V44ZM141.341 41.8835C141.341 42.4897 141.132 42.9966 140.714 43.4043C140.296 43.8014 139.763 44 139.115 44H138.002C137.364 44 136.837 43.8014 136.418 43.4043C136 42.9966 135.791 42.4897 135.791 41.8835V38.8735H134.474V37.4468H135.791V34.9071H137.359V37.4468H138.927V38.8735H137.359V42.0246C137.359 42.1605 137.411 42.2807 137.516 42.3852C137.631 42.4897 137.762 42.542 137.908 42.542H139.193C139.34 42.542 139.465 42.4897 139.57 42.3852C139.685 42.2807 139.742 42.1605 139.742 42.0246V41.2408H141.341V41.8835ZM146.14 36.4905H144.478V34.9071H146.14V36.4905ZM147.457 44H143.224V42.6047H144.541V38.8578H143.224V37.4468H146.108V42.6047H147.457V44ZM156.207 41.8835C156.207 42.4897 155.998 42.9966 155.58 43.4043C155.162 43.8014 154.629 44 153.981 44H152.868C152.23 44 151.703 43.8014 151.284 43.4043C150.866 42.9966 150.657 42.4897 150.657 41.8835V38.8735H149.34V37.4468H150.657V34.9071H152.225V37.4468H153.793V38.8735H152.225V42.0246C152.225 42.1605 152.277 42.2807 152.382 42.3852C152.497 42.4897 152.628 42.542 152.774 42.542H154.059C154.206 42.542 154.331 42.4897 154.436 42.3852C154.551 42.2807 154.608 42.1605 154.608 42.0246V41.2408H156.207V41.8835ZM164.58 43.3572C164.58 43.9634 164.371 44.4651 163.953 44.8623C163.535 45.2699 163.002 45.4737 162.354 45.4737H159.407V44H162.464C162.621 44 162.751 43.953 162.856 43.8589C162.96 43.7544 163.013 43.629 163.013 43.4826V43.075H160.316C159.678 43.075 159.145 42.8765 158.717 42.4793C158.299 42.0821 158.09 41.5805 158.09 40.9743V37.5723H159.658V41.084C159.658 41.2303 159.71 41.3557 159.814 41.4603C159.929 41.5543 160.06 41.6014 160.206 41.6014H163.013V37.5723H164.58V43.3572ZM179.44 41.8835C179.44 42.4897 179.231 42.9966 178.813 43.4043C178.395 43.8014 177.862 44 177.214 44H174.799C174.151 44 173.618 43.8014 173.2 43.4043C172.782 42.9966 172.573 42.4897 172.573 41.8835V37.0235C172.573 36.4174 172.782 35.9157 173.2 35.5185C173.618 35.1109 174.151 34.9071 174.799 34.9071H177.245C177.882 34.9071 178.405 35.1214 178.813 35.5499C179.231 35.9784 179.44 36.501 179.44 37.1176V37.6663H177.841V36.9765C177.841 36.8197 177.783 36.6839 177.668 36.5689C177.564 36.4539 177.438 36.3965 177.292 36.3965H174.721C174.575 36.3965 174.444 36.4539 174.329 36.5689C174.224 36.6839 174.172 36.8197 174.172 36.9765V41.9463C174.172 42.103 174.224 42.2389 174.329 42.3539C174.444 42.4688 174.575 42.5263 174.721 42.5263H177.292C177.438 42.5263 177.564 42.4688 177.668 42.3539C177.783 42.2389 177.841 42.103 177.841 41.9463V41.2408H179.44V41.8835ZM188.512 44H186.944V39.4065C186.944 39.2706 186.886 39.1505 186.771 39.0459C186.667 38.9414 186.541 38.8892 186.395 38.8892H185.36C185.183 38.8892 185.057 38.9048 184.984 38.9362C184.911 38.9675 184.807 39.0459 184.671 39.1714L183.511 40.1434V44H181.943V34.9071H183.511V38.3248C183.74 38.1157 183.908 37.9694 184.012 37.8858C184.127 37.7917 184.294 37.6977 184.514 37.6036C184.733 37.4991 184.958 37.4468 185.188 37.4468H186.348C186.986 37.4364 187.503 37.6245 187.9 38.0112C188.308 38.3875 188.512 38.8839 188.512 39.5006V44ZM197.575 41.5543H192.589V42.0874C192.589 42.2232 192.642 42.3434 192.746 42.4479C192.861 42.5525 192.992 42.6047 193.138 42.6047H196.744V44H193.248C192.6 44 192.067 43.8066 191.649 43.4199C191.231 43.0228 191.022 42.5211 191.022 41.9149V39.6574C191.022 39.0512 191.231 38.5547 191.649 38.168C192.067 37.7708 192.6 37.5723 193.248 37.5723H195.349C195.997 37.5723 196.53 37.7708 196.948 38.168C197.366 38.5547 197.575 39.0512 197.575 39.6574V41.5543ZM196.007 40.1904V39.5319C196.007 39.3856 195.955 39.2654 195.85 39.1714C195.746 39.0668 195.615 39.0146 195.458 39.0146H193.138C192.992 39.0146 192.861 39.0668 192.746 39.1714C192.642 39.2759 192.589 39.3961 192.589 39.5319V40.1904H196.007ZM206.481 40.2845H204.914V39.5163C204.914 39.3281 204.872 39.1975 204.788 39.1243C204.705 39.0407 204.564 38.9989 204.365 38.9989H202.202C202.055 38.9989 201.925 39.0512 201.81 39.1557C201.705 39.2602 201.653 39.3804 201.653 39.5163V42.056C201.653 42.1919 201.705 42.3121 201.81 42.4166C201.925 42.5211 202.055 42.5734 202.202 42.5734H205.87V44H202.311C201.674 44 201.141 43.8014 200.712 43.4043C200.294 42.9966 200.085 42.495 200.085 41.8992V39.6574C200.085 39.0512 200.294 38.5547 200.712 38.168C201.13 37.7708 201.663 37.5723 202.311 37.5723H204.255C204.945 37.5723 205.489 37.7499 205.886 38.1053C206.283 38.4502 206.481 38.931 206.481 39.5476V40.2845ZM215.298 43.2632L214.091 44.2508L211.77 41.5543L210.563 42.7301V44H208.995V34.9071H210.563V40.6921L214.138 37.196L215.282 38.2621L212.899 40.5196L215.298 43.2632Z" fill="url(#paint9_linear_767_1004)"/>
<defs>
<linearGradient id="paint0_linear_767_1004" x1="49.8495" y1="20.8396" x2="129.008" y2="45.9478" gradientUnits="userSpaceOnUse">
<stop stop-color="#00D17A"/>
<stop offset="1" stop-color="#0EA65E" stop-opacity="0"/>
</linearGradient>
<linearGradient id="paint1_linear_767_1004" x1="47.3719" y1="8" x2="80.7917" y2="54.4208" gradientUnits="userSpaceOnUse">
<stop stop-color="#232A27"/>
<stop offset="1" stop-color="#232A27" stop-opacity="0"/>
</linearGradient>
<linearGradient id="paint2_linear_767_1004" x1="61" y1="26.5" x2="132.077" y2="58.7093" gradientUnits="userSpaceOnUse">
<stop stop-color="#00D17A"/>
<stop offset="1" stop-color="#0EA65E" stop-opacity="0"/>
</linearGradient>
<linearGradient id="paint3_linear_767_1004" x1="45" y1="17" x2="66.4414" y2="47.2156" gradientUnits="userSpaceOnUse">
<stop stop-color="#232A27"/>
<stop offset="1" stop-color="#232A27" stop-opacity="0"/>
</linearGradient>
<radialGradient id="paint4_radial_767_1004" cx="0" cy="0" r="1" gradientUnits="userSpaceOnUse" gradientTransform="translate(38.6975 42.5758) rotate(3.06438) scale(57.5361 53.2349)">
<stop stop-color="#00D17A"/>
<stop offset="1" stop-color="#161616"/>
</radialGradient>
<radialGradient id="paint5_radial_767_1004" cx="0" cy="0" r="1" gradientUnits="userSpaceOnUse" gradientTransform="translate(197.456 24.5) rotate(159.233) scale(64.4399 91.8821)">
<stop stop-color="white" stop-opacity="0.18"/>
<stop offset="1" stop-color="white" stop-opacity="0.04"/>
</radialGradient>
<linearGradient id="paint6_linear_767_1004" x1="38.8481" y1="26.2576" x2="39.7201" y2="31.5327" gradientUnits="userSpaceOnUse">
<stop stop-color="#00D17A"/>
<stop offset="1" stop-opacity="0"/>
</linearGradient>
<linearGradient id="paint7_linear_767_1004" x1="41.5" y1="35" x2="41.5" y2="43" gradientUnits="userSpaceOnUse">
<stop stop-color="#00D17A"/>
<stop offset="1" stop-color="#09F785"/>
</linearGradient>
<radialGradient id="paint8_radial_767_1004" cx="0" cy="0" r="1" gradientUnits="userSpaceOnUse" gradientTransform="translate(41.1603 35) rotate(87.5684) scale(8.00721 8.77333)">
<stop stop-color="white" stop-opacity="0.48"/>
<stop offset="1" stop-color="white" stop-opacity="0.04"/>
</radialGradient>
<linearGradient id="paint9_linear_767_1004" x1="60" y1="39" x2="217" y2="39" gradientUnits="userSpaceOnUse">
<stop stop-color="white"/>
<stop offset="1" stop-color="#6A6A6A"/>
</linearGradient>
</defs>
</svg>
