<svg width="1165" height="689" viewBox="0 0 1165 689" fill="none" xmlns="http://www.w3.org/2000/svg">
<path d="M230.826 72.9894C232.887 73.2272 233.797 74.1064 235.184 75.5904C236.611 77.0748 238.037 78.4829 239.613 79.8082C246.363 85.6732 252.083 92.1356 257.257 99.4211C257.488 99.7453 257.719 100.07 257.957 100.404C266.953 113.238 272.479 127.487 276.381 142.552C279.823 155.782 284.073 169.171 292.125 180.403C292.517 180.954 292.909 181.505 293.313 182.073C296.076 185.852 299.036 189.372 302.247 192.775C302.626 193.19 303.004 193.605 303.394 194.032C308.516 199.442 314.541 203.464 321.087 206.94C325.669 209.395 328.974 211.664 330.893 216.676C332.014 220.734 331.81 224.455 329.804 228.205C328.289 230.311 326.659 231.806 324.602 233.372C320.515 236.661 316.117 240.791 315.182 246.201C314.877 250.393 316.593 253.64 319.119 256.886C322.36 260.243 326.08 263.087 329.804 265.884C329.35 268.896 328.766 271.836 327.919 274.762C327.785 275.233 327.65 275.704 327.512 276.19C327.238 277.137 326.955 278.081 326.662 279.022C325.854 281.708 325.854 281.708 326.542 284.355C326.876 284.755 327.21 285.155 327.554 285.568C327.805 285.923 328.056 286.278 328.314 286.644C328.794 287.289 329.275 287.933 329.755 288.577C331.301 290.924 331.242 293.553 330.929 296.253C329.986 298.266 328.957 299.366 327.337 300.886C324.092 303.932 321.754 306.303 321.368 310.874C321.375 315.264 323.2 318.76 325.349 322.465C327.999 327.056 328.632 331.484 328.117 336.744C327.637 338.488 326.936 339.79 325.867 341.243C325.633 341.569 325.399 341.895 325.158 342.231C315.143 353.955 293.929 354.125 280.001 355.405C279.371 355.464 278.742 355.522 278.094 355.582C274.939 355.873 271.784 356.155 268.627 356.419C257.839 357.359 246.949 358.882 236.695 362.508C236.148 362.695 235.601 362.882 235.037 363.074C230.233 364.766 225.718 366.9 221.265 369.362C222.558 408.536 238.592 449.934 264.224 479.636C264.886 480.422 265.531 481.222 266.166 482.03C269.659 486.448 273.537 490.397 277.535 494.357C278.666 495.477 279.792 496.602 280.918 497.728C285.668 502.477 285.668 502.477 290.681 506.944C292.028 508.108 293.25 509.388 294.495 510.659C295.552 511.695 296.655 512.652 297.784 513.611C299.884 515.417 301.621 517.371 303.372 519.516C284.008 513.988 265.186 504.023 249.946 490.835C249.278 490.26 249.278 490.26 248.595 489.673C220.856 465.26 209.618 432.676 203.17 397.133C202.709 394.609 202.156 392.108 201.582 389.607C201.211 389.607 200.84 389.607 200.457 389.607C199.071 395.708 200.003 402.315 200.328 408.524C200.374 409.428 200.421 410.332 200.467 411.236C200.564 413.13 200.663 415.024 200.763 416.918C200.863 418.818 200.961 420.718 201.056 422.618C201.547 432.424 202.099 442.216 202.986 451.996C203.083 453.08 203.083 453.08 203.183 454.186C206.291 486.97 216.004 517.904 237.012 543.698C237.292 544.044 237.573 544.389 237.861 544.745C243.841 552.053 250.391 558.669 257.82 564.506C258.422 565.008 259.023 565.512 259.623 566.017C268.704 573.596 278.843 579.845 289.313 585.314C289.684 585.508 290.055 585.703 290.437 585.903C293.038 587.256 295.665 588.55 298.311 589.813C298.72 590.009 299.13 590.205 299.552 590.407C314.653 597.58 330.786 603.19 347.109 606.848C347.523 606.98 347.936 607.111 348.362 607.247C348.548 607.618 348.733 607.989 348.925 608.371C343.114 610.308 336.118 608.489 330.226 607.458C329.561 607.344 329.561 607.344 328.882 607.227C296.52 601.67 265.664 590.14 239.824 569.567C239.305 569.158 238.786 568.748 238.251 568.326C230.124 561.808 222.238 554.549 215.756 546.376C214.465 544.758 213.123 543.195 211.775 541.624C184.962 509.424 174.16 467.801 167.84 427.286C165.267 434.112 163.157 440.952 161.653 448.094C161.56 448.531 161.466 448.968 161.369 449.419C158.293 464.608 158.507 482.562 162.216 497.583C162.333 498.08 162.451 498.576 162.572 499.088C166.098 513.651 172.723 527.299 181.68 539.274C182.368 540.199 183.036 541.139 183.7 542.081C186.604 545.982 190.011 548.418 194.025 551.044C196.682 552.782 199.241 554.639 201.793 556.527C202.241 556.859 202.69 557.19 203.151 557.531C206.224 559.813 209.252 562.148 212.267 564.506C213.11 565.159 213.953 565.811 214.796 566.463C216.501 567.786 218.177 569.138 219.844 570.51C226.691 576.01 233.739 578.785 242.073 581.377C243.329 581.769 244.583 582.166 245.836 582.568C246.395 582.744 246.953 582.92 247.529 583.102C248.822 583.627 248.822 583.627 249.384 584.752C248.294 584.589 247.205 584.424 246.115 584.26C245.508 584.168 244.902 584.077 244.277 583.983C241.472 583.53 238.68 583.018 235.887 582.502C246.382 589.573 256.783 596.388 268.075 602.145C268.607 602.418 269.14 602.691 269.689 602.972C270.165 603.213 270.642 603.455 271.133 603.704C272.413 604.419 273.541 605.214 274.691 606.122C272.648 605.775 270.894 605.211 268.995 604.389C261.677 601.283 254.334 598.484 246.783 595.999C246.143 595.788 246.143 595.788 245.49 595.573C241.668 594.314 237.841 593.069 234.008 591.843C213.644 585.331 194.701 576.336 175.645 566.696C152.659 555.001 152.659 555.001 127.911 548.197C127.303 548.096 126.694 547.994 126.068 547.89C116.692 546.748 107.68 547.657 99.2296 552.134C98.7816 552.369 98.3336 552.605 97.872 552.848C88.6786 558.014 82.593 566.06 79.687 576.14C77.4724 584.961 78.0914 593.649 82.477 601.761C85.7324 606.772 90.667 610.945 96.5386 612.385C108.038 614.729 120.209 611.895 129.914 605.489C136.776 600.626 143.328 593.919 145.681 585.602C146.529 580.304 146.442 575.866 143.657 571.255C143.657 570.512 143.657 569.77 143.657 569.005C147.101 569.763 149.69 570.967 151.658 574.007C154.574 579.494 154.222 585.282 152.745 591.168C148.499 604.307 138.524 615.233 126.391 621.622C114.767 627.436 102.397 630.196 89.6692 626.367C84.3674 624.52 79.9629 622.024 75.6098 618.494C75.0523 618.058 74.4949 617.623 73.9205 617.174C72.1552 615.69 70.7806 613.978 69.4588 612.097C69.2184 611.755 68.978 611.413 68.7303 611.061C60.9829 599.712 58.5989 586.542 60.8167 572.986C61.2804 570.668 61.9205 568.431 62.6752 566.193C62.7927 565.84 62.9102 565.486 63.0313 565.122C68.4246 549.406 78.9783 537.139 93.8946 529.715C110.204 521.951 128.713 520.714 145.907 526.264C145.721 526.017 145.535 525.769 145.343 525.514C135.187 511.919 126.723 497.121 120.6 481.274C120.396 480.755 120.193 480.235 119.983 479.699C115.116 467.153 111.524 454.165 109.915 440.783C109.863 440.403 109.81 440.022 109.757 439.63C108.144 426.383 108.529 411.68 111.04 398.605C111.148 398.035 111.257 397.464 111.369 396.877C114.066 383.238 118.375 370.018 124.537 357.552C124.803 357.008 125.07 356.465 125.345 355.905C130.694 345.094 136.844 334.884 143.969 325.151C144.997 323.742 145.988 322.312 146.966 320.868C147.24 320.462 147.515 320.057 147.798 319.639C148.325 318.859 148.849 318.077 149.37 317.294C149.611 316.938 149.852 316.582 150.1 316.215C150.309 315.903 150.518 315.591 150.733 315.269C151.531 314.249 151.531 314.249 152.884 312.914C154.315 311.465 155.437 309.992 156.61 308.331C159.534 304.375 162.912 301.009 166.434 297.588C167.358 296.684 168.281 295.778 169.202 294.871C170.025 294.062 170.852 293.256 171.678 292.451C172.916 291.303 172.916 291.303 173.463 290.067C173.834 290.067 174.206 290.067 174.588 290.067C174.816 289.563 174.816 289.563 175.05 289.05C175.705 287.831 176.346 287.051 177.327 286.084C177.652 285.761 177.977 285.438 178.312 285.105C178.662 284.762 179.013 284.419 179.375 284.065C179.92 283.524 179.92 283.524 180.476 282.972C181.639 281.819 182.806 280.67 183.973 279.522C185.129 278.381 186.285 277.239 187.439 276.096C188.156 275.386 188.874 274.677 189.595 273.97C191.703 271.885 193.692 269.728 195.625 267.478C197.071 265.813 198.593 264.22 200.106 262.616C203.187 259.319 206.083 255.92 208.893 252.387C209.436 251.72 209.981 251.053 210.525 250.386C213.892 246.25 217.099 242.067 220.052 237.621C220.502 236.943 220.956 236.267 221.411 235.593C233.658 217.455 242.561 197.484 246.572 175.904C246.663 175.443 246.755 174.981 246.849 174.505C251.077 152.37 248.402 128.294 242.636 106.732C242.488 106.182 242.341 105.631 242.19 105.064C240.006 97.0757 237.069 89.5031 233.771 81.9141C232.574 79.1382 231.42 76.3446 230.263 73.5518C230.449 73.3662 230.634 73.1806 230.826 72.9894ZM143.095 371.611C139.425 376.217 136.448 380.898 133.781 386.163C133.6 386.516 133.419 386.869 133.233 387.233C120.851 411.515 117.415 438.016 125.785 464.182C125.929 464.626 126.074 465.07 126.224 465.528C126.418 466.126 126.418 466.126 126.617 466.737C132.976 485.857 145.149 501.803 158.701 516.388C159.039 516.754 159.378 517.119 159.726 517.496C162.56 520.511 165.513 523.401 168.964 525.702C168.22 523.685 167.325 521.974 166.141 520.182C165.802 519.665 165.462 519.148 165.113 518.616C164.748 518.066 164.384 517.516 164.008 516.95C163.632 516.377 163.256 515.804 162.868 515.213C161.378 512.944 159.882 510.678 158.382 508.415C154.105 501.959 150.041 495.462 146.469 488.585C146.273 488.209 146.077 487.832 145.875 487.444C137.021 470.167 131.982 450.62 131.285 431.223C131.262 430.624 131.239 430.025 131.215 429.408C130.93 414.518 133.62 399.675 138.596 385.67C138.745 385.25 138.894 384.83 139.047 384.397C141.495 377.564 141.495 377.564 142.948 374.838C143.871 373.297 143.871 373.297 143.095 371.611Z" fill="#F97316"/>
<path d="M178.521 117.417C179.08 117.885 179.64 118.353 180.217 118.834C188.1 125.638 195.193 134.89 198.204 144.974C198.204 145.531 198.204 146.087 198.204 146.661C176.063 147.254 154.991 142.16 137.467 128.103C137.083 127.805 136.699 127.507 136.303 127.2C135.54 126.595 134.811 125.948 134.093 125.291C134.093 124.919 134.093 124.548 134.093 124.166C133.722 124.166 133.351 124.166 132.968 124.166C128.527 119.641 122.283 111.073 122.283 104.483C123.125 104.208 123.969 103.94 124.814 103.674C125.284 103.524 125.753 103.374 126.237 103.22C144.239 98.6481 164.703 105.871 178.521 117.417Z" fill="#F97316"/>
<path d="M193.148 162.407C190.986 167.686 183.484 170.385 178.526 172.53C165.31 177.839 150.166 178.852 136.348 175.342C135.975 175.248 135.603 175.155 135.219 175.058C124.402 172.239 114.61 166.751 106.542 159.033C112.815 151.001 122.045 147.36 131.949 145.92C152.919 143.386 176.222 149.78 193.148 162.407Z" fill="#F97316"/>
<path d="M156.588 60.6172C159.757 60.8441 162.25 61.775 165.094 63.1479C165.512 63.3485 165.93 63.5491 166.361 63.7558C184.78 72.8438 198.651 90.43 205.377 109.631C207.824 117.025 209.142 124.219 208.889 132.039C206.179 131.73 204.023 130.901 201.648 129.614C201.286 129.418 200.923 129.222 200.549 129.02C193.409 125.031 187.197 119.697 181.332 114.043C180.868 113.614 180.403 113.185 179.924 112.742C168.283 101.681 156.624 84.5117 155.834 67.9544C155.791 65.6836 155.829 63.4427 156.025 61.1796C156.211 60.994 156.397 60.8084 156.588 60.6172Z" fill="#F97316"/>
<path d="M194.826 179.278C194.039 186.407 184.681 194.044 179.343 198.348C163.043 210.974 142.532 217.742 121.877 215.68C113.786 214.65 113.786 214.65 112.156 213.02C114.062 208.519 116.588 205.219 120.03 201.773C120.446 201.35 120.862 200.927 121.29 200.492C139.869 182.695 170.119 177.075 194.826 179.278Z" fill="#F97316"/>
<path d="M231.582 142.99C237.682 147.423 242.942 153.667 244.319 161.283C244.677 165.718 244.693 169.387 242.07 173.092C241.838 173.432 241.606 173.771 241.367 174.121C237.37 179.343 230.433 182.195 224.074 183.215C217.38 183.731 210.69 183.006 205.388 178.543C201.131 174.482 197.982 170.1 197.508 164.077C197.365 157.371 198.585 151.654 203.266 146.661C210.837 139.012 222.233 137.135 231.582 142.99Z" fill="#F97316"/>
<path d="M217.895 71.8647C219.846 73.4182 220.602 75.5964 221.515 77.84C221.687 78.2596 221.859 78.6793 222.036 79.1117C228.491 95.4533 227.569 112.666 220.707 128.665C220.342 129.419 219.972 130.172 219.582 130.914C218.094 130.35 217.433 129.95 216.577 128.583C209.698 112.712 208.018 94.4034 214.329 78.0399C215.331 75.8127 216.495 73.864 217.895 71.8647Z" fill="#F97316"/>
<path d="M202.704 186.589C202.172 202.382 195.063 216.912 183.583 227.643C179.616 231.147 175.442 234.346 170.649 236.641C168.777 226.625 174.238 215.546 179.647 207.397C183.961 201.206 194.385 186.589 202.704 186.589Z" fill="#F97316"/>
<path d="M275.809 606.684C276.933 607.246 276.933 607.246 276.933 607.246L275.809 606.684Z" fill="#F97316"/>
<path d="M274.694 606.122C275.819 606.684 275.819 606.684 275.819 606.684L274.694 606.122Z" fill="#F97316"/>
<path d="M104.285 562.257C105.41 562.819 105.41 562.819 105.41 562.819L104.285 562.257Z" fill="#F97316"/>
<path d="M533.488 308.073C510.992 286.028 492.772 263.308 484.673 248.461C480.399 240.813 478.375 234.064 478.375 228.441C478.375 220.567 482.874 216.293 490.522 216.293C497.046 216.293 503.119 220.342 508.968 227.091C517.066 221.467 519.766 211.344 519.766 201.447C519.766 193.123 517.966 185.7 515.941 180.976H468.927V165.005H580.502V180.976H534.387C536.862 187.5 537.987 194.698 537.987 203.696C537.987 214.044 535.512 222.817 530.338 230.24C539.786 233.615 548.784 234.964 558.457 234.964C566.105 234.964 572.854 234.289 580.952 232.94L581.402 248.911C573.754 250.711 567.23 251.161 558.457 251.161C546.76 251.161 531.913 248.461 519.541 241.713C515.042 244.862 509.418 247.786 503.119 249.811C513.917 264.433 529.213 279.279 547.21 295.926L533.488 308.073ZM579.079 289.402L569.406 273.206L629.468 243.512C616.87 225.516 609.447 219.443 597.075 219.443C588.976 219.443 579.754 222.142 568.731 227.766L562.432 210.895C572.78 205.721 584.253 202.346 596.625 202.346C614.396 202.346 625.868 209.995 642.29 233.165V180.976H556.359V165.005H683.681V180.976H660.511V304.924H642.29V254.76L579.079 289.402ZM718.718 180.976V304.924H700.497V180.976H680.477V165.005H700.047C693.299 134.186 682.951 119.34 667.655 119.34C654.832 119.34 649.209 126.988 649.209 139.36C649.209 148.133 652.358 156.906 656.857 166.579H638.861C633.687 156.007 630.988 145.434 630.988 135.986C630.988 116.865 643.36 103.368 664.73 103.368C695.099 103.368 708.371 125.188 716.919 165.005H741.888V180.976H718.718Z" fill="white"/>
<path d="M571.774 494.496C571.774 502.324 569.075 508.87 563.676 514.134C558.277 519.263 551.394 521.827 543.025 521.827H511.847C503.479 521.827 496.596 519.263 491.197 514.134C485.798 508.87 483.099 502.324 483.099 494.496V487.005H503.344V495.508C503.344 497.532 504.019 499.287 505.369 500.772C506.853 502.256 508.541 502.999 510.43 502.999H544.443C546.332 502.999 547.952 502.256 549.302 500.772C550.786 499.287 551.529 497.532 551.529 495.508V480.324C551.529 478.029 550.719 476.275 549.099 475.06C547.479 473.71 545.117 472.833 542.013 472.428C538.909 472.023 535.872 471.821 532.903 471.821C530.068 471.686 526.492 471.686 522.173 471.821C517.988 471.956 514.817 472.023 512.657 472.023C504.289 471.753 497.405 469.054 492.007 463.925C486.608 458.796 483.908 452.317 483.908 444.489V431.329C483.908 423.501 486.608 417.023 492.007 411.894C497.405 406.63 504.289 403.998 512.657 403.998H541.406C549.774 403.998 556.657 406.63 562.056 411.894C567.455 417.023 570.154 423.501 570.154 431.329V439.023H549.909V430.317C549.909 428.293 549.167 426.538 547.682 425.053C546.332 423.569 544.713 422.826 542.823 422.826H511.24C509.35 422.826 507.663 423.569 506.179 425.053C504.829 426.538 504.154 428.293 504.154 430.317V445.704C504.154 447.998 504.964 449.82 506.583 451.17C508.203 452.385 510.565 453.195 513.669 453.6C516.909 454.004 519.878 454.274 522.577 454.409C525.412 454.409 528.989 454.342 533.308 454.207C537.762 453.937 541.001 453.802 543.025 453.802C551.259 454.072 558.075 456.771 563.473 461.9C569.007 467.029 571.774 473.508 571.774 481.336V494.496ZM686.997 521.422H666.751V462.103C666.751 460.348 666.009 458.796 664.524 457.446C663.174 456.097 661.555 455.422 659.665 455.422H646.303C644.008 455.422 642.389 455.624 641.444 456.029C640.499 456.434 639.15 457.446 637.395 459.066L622.413 471.618V521.422H602.168V403.998H622.413V448.133C625.383 445.434 627.542 443.544 628.892 442.465C630.376 441.25 632.536 440.035 635.37 438.82C638.205 437.471 641.107 436.796 644.076 436.796H659.058C667.291 436.661 673.972 439.09 679.101 444.084C684.365 448.943 686.997 455.354 686.997 463.317V521.422ZM757.067 424.446H735.606V403.998H757.067V424.446ZM774.073 521.422H719.41V503.404H736.416V455.017H719.41V436.796H756.662V503.404H774.073V521.422ZM887.075 489.839H822.694V496.723C822.694 498.477 823.369 500.029 824.718 501.379C826.203 502.729 827.89 503.404 829.78 503.404H876.344V521.422H831.197C822.829 521.422 815.945 518.925 810.546 513.931C805.148 508.802 802.448 502.324 802.448 494.496V465.342C802.448 457.514 805.148 451.103 810.546 446.109C815.945 440.98 822.829 438.415 831.197 438.415H858.326C866.694 438.415 873.578 440.98 878.976 446.109C884.375 451.103 887.075 457.514 887.075 465.342V489.839ZM866.829 472.225V463.722C866.829 461.833 866.154 460.281 864.805 459.066C863.455 457.716 861.768 457.041 859.743 457.041H829.78C827.89 457.041 826.203 457.716 824.718 459.066C823.369 460.416 822.694 461.968 822.694 463.722V472.225H866.829ZM974.156 521.422H919.493V503.404H936.701V422.017H919.493V403.998H956.947V503.404H974.156V521.422ZM1087.38 521.422H1030.29C1021.92 521.422 1015.04 518.858 1009.64 513.729C1004.24 508.465 1001.54 501.919 1001.54 494.091V464.127C1001.54 456.299 1004.24 449.753 1009.64 444.489C1015.17 439.225 1022.06 436.661 1030.29 436.796H1045.88C1048.85 436.796 1051.68 437.403 1054.38 438.618C1057.22 439.833 1059.38 441.047 1060.86 442.262C1062.35 443.477 1064.44 445.366 1067.14 447.931V403.998H1087.38V521.422ZM1067.14 503.404V471.416L1052.76 458.863C1050.87 457.109 1049.46 456.097 1048.51 455.827C1047.7 455.422 1046.08 455.219 1043.65 455.219H1028.87C1026.98 455.219 1025.3 455.894 1023.81 457.244C1022.46 458.593 1021.79 460.146 1021.79 461.9V496.52C1021.79 498.41 1022.46 500.029 1023.81 501.379C1025.3 502.729 1026.98 503.404 1028.87 503.404H1067.14Z" fill="white"/>
</svg>
